<!-- <svg xmlns="http://www.w3.org/2000/svg" width="16" height="16" fill="currentColor" class="bi bi-mastodon" viewBox="0 0 16 16">
  <path d="M11.19 12.195c2.016-.24 3.77-1.475 3.99-2.603.348-1.778.32-4.339.32-4.339 0-3.47-2.286-4.488-2.286-4.488C12.062.238 10.083.017 8.027 0h-.05C5.92.017 3.942.238 2.79.765c0 0-2.285 1.017-2.285 4.488l-.002.662c-.004.64-.007 1.35.011 2.091.083 3.394.626 6.74 3.78 7.57 1.454.383 2.703.463 3.709.408 1.823-.1 2.847-.647 2.847-.647l-.06-1.317s-1.303.41-2.767.36c-1.45-.05-2.98-.156-3.215-1.928a3.614 3.614 0 0 1-.033-.496s1.424.346 3.228.428c1.103.05 2.137-.064 3.188-.189zm1.613-2.47H11.13v-4.08c0-.859-.364-1.295-1.091-1.295-.804 0-1.207.517-1.207 1.541v2.233H7.168V5.89c0-1.024-.403-1.541-1.207-1.541-.727 0-1.091.436-1.091 1.296v4.079H3.197V5.522c0-.859.22-1.541.66-2.046.456-.505 1.052-.764 1.793-.764.856 0 1.504.328 1.933.983L8 4.39l.417-.695c.429-.655 1.077-.983 1.934-.983.74 0 1.336.259 1.791.764.442.505.661 1.187.661 2.046v4.203z"/>
</svg> -->

<svg xmlns="http://www.w3.org/2000/svg" x="0px" y="0px" width="16" height="16" viewBox="0 0 24 24" fill="currentColor">
<path d="M21.31,2.331c-2.636,0-6.671,3.82-9.31,7.815C9.361,6.152,5.326,2.331,2.69,2.331C1,2.331,1,4.098,1,4.947	c0,0.551,0.335,4.912,0.577,5.81c0.435,1.622,1.504,3.13,3.108,3.948c-0.552,0.452-0.949,0.984-1.149,1.586	c-0.227,0.68-0.388,2.047,1.08,3.562c1.174,1.211,2.256,1.8,3.31,1.8c1.703,0,3.166-1.91,4.075-3.458	c0.909,1.548,2.372,3.458,4.075,3.458c1.054,0,2.136-0.589,3.31-1.8c1.468-1.514,1.306-2.881,1.08-3.562	c-0.201-0.602-0.598-1.134-1.149-1.586c1.604-0.818,2.674-2.326,3.108-3.948C22.665,9.859,23,5.499,23,4.947	C23,4.098,23,2.331,21.31,2.331z M20.492,10.239c-0.44,1.64-1.885,3.376-4.492,3.044v2.084c1.613,0.36,2.395,1.042,2.567,1.558	c0.185,0.553-0.234,1.141-0.619,1.537c-1.004,1.037-1.605,1.191-1.874,1.191c-0.763,0-2.114-1.852-2.972-3.653h-1.087L12,16.007	L11.985,16h-1.087c-0.859,1.801-2.209,3.653-2.972,3.653c-0.269,0-0.869-0.155-1.874-1.191c-0.384-0.396-0.803-0.984-0.619-1.537	C5.605,16.409,6.387,15.727,8,15.367v-2.084c-2.607,0.332-4.052-1.404-4.492-3.044C3.354,9.666,3,5.613,3,4.947	c0-0.26,0.006-0.445,0.016-0.577C4.794,4.762,8.42,8.073,10.809,12h1.113h0.156h1.113c2.389-3.927,6.014-7.238,7.793-7.63	C20.994,4.502,21,4.688,21,4.947C21,5.613,20.646,9.666,20.492,10.239z"></path>
</svg>
